<svg xmlns="http://www.w3.org/2000/svg" width="21" height="22" viewBox="0 0 21 22" fill="none">
<path d="M19.5988 6.49917H17.5776V0.0623333L11.0063 5.88683V0.144833H9.99484V5.8245L3.92934 0V6.49917H1.40234V16.0298H3.92934V22L9.99572 16.17V21.8542H11.0063V16.3112L17.0718 21.9771V16.0298H19.5988V6.49917ZM16.5661 2.34575V6.49825H11.8805L16.5661 2.34575ZM4.94084 2.40717L9.20122 6.49917H4.93997L4.94084 2.40717ZM2.41384 14.971V7.55792H9.27997L3.92934 13.1633V14.971H2.41384ZM4.94084 19.591V13.6015L9.99484 8.30683V14.7336L4.94084 19.591ZM16.0603 19.6139L11.0063 14.8931V8.30592L16.0603 13.6006V19.6139ZM18.5882 14.971H17.0718V13.1633L11.7212 7.55792H18.5882V14.971Z" fill="#13AAFC"/>
</svg>
