<svg style="width:100%; height:auto;" id="logo" data-name="logo" xmlns="http://www.w3.org/2000/svg" viewBox="0 0 360.53 610.9" class="icon" fill="currentColor" stroke="currentColor" focusable="false"><defs><style>.cls-1 {
					stroke-width: 0px;
				}</style></defs><g id="template_example"><g><path class="cls-1" d="m228.01,72.81c-1.16,1.69-2,3.78-3.53,4.99-7.4,5.83-14.5,12.3-22.63,16.89-11.83,6.68-23.49,13.2-31.15,25.09-.52-.15-1.05-.3-1.57-.46,0-3.11-.3-6.26.05-9.33,3.5-31.11,16.92-57.49,38.77-79.6,11.87-12.01,25.08-22.37,40.9-28.81,2.88-1.17,6.26-1.09,9.41-1.58.01,2.88.34,5.81,0,8.65-3.19,25.72-16.87,44.6-38.29,58.38-2.22,1.43-4.38,2.94-7.42,4.98,5.57-.3,10.21-.55,14.85-.81l.62,1.6Z"></path><path class="cls-1" d="m120.12,87.28c-23.39-8.92-42.03-31.76-41.66-49.88,37.23,3.29,76.46,41.08,80.21,83.7-.28.14-.66.46-.83.37-12.73-6.83-25.48-13.61-38.11-20.6-2.58-1.43-4.88-3.47-7.01-5.54-1.05-1.02-2.2-3.04-1.83-4.1.38-1.11,2.49-1.71,3.92-2.33,1.29-.56,2.7-.85,5.31-1.63Z"></path><path class="cls-1" d="m191.03,352.95c-2.92-1.02-5.22-1.83-7.54-2.64.12-.33.19-.86.33-.87,7.29-.88,10.28-5.28,10.93-12.31.4-4.26,1.72-8.47,2.94-12.62,1.42-4.84,4.56-7.41,9.93-7.27,8.8.23,17.61.14,26.42.13,7.5,0,10.5,2.61,10.04,10.11-.52,8.46-1.4,16.94-2.84,25.28-2.99,17.37-5.95,34.76-9.87,51.93-2.99,13.1-11.37,18.29-24.86,18.15-18.96-.2-37.92-.08-56.88.07-11.4.09-20.87-3.39-25.59-14.47-5.14-12.06-10.43-24.16-14.16-36.68-15.51-52-27.85-104.82-38.65-157.97-2.96-14.56-4.25-29.62-4.63-44.5-.45-17.95,10.27-29.16,26.8-33.32,14.74-3.71,30.01-6,45.18-7.14,28.82-2.17,57.73-3.32,86.62-4.41,13.22-.5,23.73,5.7,31.64,16.1,5.62,7.39,5.9,16.05,4.82,24.84-3.61,29.22-7.3,58.43-10.91,87.65-.88,7.1-1.58,14.22-2.37,21.33-.46,4.17-2.55,6.95-6.93,7.09-9.78.3-19.59.71-29.36.43-4.89-.14-7.98-4.43-7.75-9.89.82-19.28,1.72-38.57,2.84-57.84.78-13.38.96-13.36-12.19-16.21-2.22-.48-4.43-1.01-6.71-2.54,5.2-1.06,10.4-2.15,15.62-3.18,2.4-.47,5.19-.23,4.88-4.09-.29-3.63.34-7.62-4.53-8.8-.96-.23-1.99-.41-2.96-.33-21.35,1.71-42.73,3.15-64.03,5.35-8.88.92-10.57,4-9.32,12.96,1.01,7.25,2.39,14.44,3.41,21.69.39,2.81,1.67,3.96,4.44,4.3,6.19.75,12.34,1.79,18.49,3.47-4.98,1.19-9.94,2.56-14.96,3.53-4.35.83-6.51,2.67-4.78,7.33.4,1.08.53,2.27.7,3.42.74,5.03.26,11,8.99,10.11-7.04,1.64-6.23,5.63-5.17,10.48,7.81,35.78,16.45,71.32,29.35,105.67,1.16,3.1,2.37,6.31,4.25,8.97,3.8,5.36,9.56,4.55,11.72-1.65,2.44-7.01,4.39-14.2,6.65-21.64Z"></path><g style=""><path class="cls-1" d="m39.95,537.69c.92,1.6,3.21,1.67,4.25.14.87-1.29,1.6-2.43,2.12-3.65,1.68-3.97,2.85-8.16,4.5-12.15,2.14-5.17,6.8-6.57,14.03-4.72,5.49,1.4,5.19,5.63,4.44,9.56-1.57,8.15-3.53,16.24-5.54,24.3-1.13,4.56-4.25,7.16-9.77,6.53-6.7-.76-13.44-.75-20.14.07-7.5.92-11.15-2.57-13.38-8.62-8.91-24.13-14.51-49.08-18.89-74.35-.62-3.6-1.12-7.24-1.46-10.88-.98-10.47,4.92-18.83,15.36-19.49,17.22-1.09,34.5-1.13,51.76-1.4,4.63-.07,7.27,2.91,8.16,7.32.36,1.78.57,3.66.42,5.46-1.11,13.26-2.11,26.53-3.59,39.74-.82,7.34-8.88,11.39-15.24,7.69-1.7-.99-3.07-4.06-3.07-6.18,0-6.63.71-13.27,1.17-19.9.06-.83.24-1.65.34-2.47,1.26-10.65.83-11.27-9.78-10.76-5.62.27-11.23,1.02-16.79,1.89-3.34.52-5.59,2.66-4.73,6.33,5.04,21.5,10.19,42.98,15.37,64.45.09.36.24.7.46,1.09Z"></path><path class="cls-1" d="m131.39,549.13c.03,7.45-.79,8.38-8.1,8.4-13.38.03-13.25.02-14.78-13.51-.67-5.94-1.76-11.85-3.1-17.67-.34-1.5-2.34-2.61-3.58-3.9-1.25,1.46-3.48,2.85-3.59,4.39-.53,7.46-.74,14.96-.58,22.44.1,4.85-2.1,7.23-6.54,7.65-2.94.27-6.14.49-8.85-.39-1.95-.63-3.81-2.87-4.77-4.85-.96-1.98-1.01-4.53-1.04-6.83-.34-30.5,2.13-60.8,6.47-90.98.74-5.14,3.01-7.34,8.13-7.07,10.95.58,21.9,1.05,32.86,1.51,4.24.18,5.69,2.48,5.67,6.51-.09,16.14.97,29.88.97,46.01.61,0,.79,33,.84,48.3Zm-21.99-65.61c.13-2.47.65-4.01.16-5.08-.22-.48-.47-.94-.75-1.39-1.59-2.61-5.54-2.59-6.82.18-.12.26-.2.52-.25.79-1.1,6.88-1.48,13.87-2.2,20.82-.31,3.05.71,4.74,4,4.89,3.24.15,4.43-1.45,4.63-4.44.37-5.64.87-11.28,1.22-15.78Z"></path><path class="cls-1" d="m216.56,526.47c.51,7.57,1.07,14.51,1.42,21.45.35,6.98-1.51,8.87-8.55,9.09-1.33.04-2.67-.15-3.98,0-4.74.58-6.65-1.41-6.56-6.2.49-26.08.82-52.16,1.2-78.25.1-6.8-.03-13.61.3-20.39.23-4.85,3.12-7.51,8.01-7.56,9.96-.1,19.93-.12,29.89.11,6.09.14,11.65,4.69,12.2,11.2,1,11.72,1.27,23.53,1.25,35.3,0,5.6-3.66,9.52-8.82,11.64-3.04,1.25-6.25,2.08-9.98,3.29,3.53,9.95,7.06,19.88,10.57,29.83,1.49,4.23,3.14,8.42,4.31,12.73,1.23,4.52-.28,6.47-4.9,7.21-.66.1-1.32.2-1.98.26-11.42,1.05-11.92.76-15.94-10.02-2.32-6.23-4.54-12.49-6.84-18.72-.08-.22-.5-.31-1.62-.97Zm2.47-37.45c1.57-.4,2.72-.5,3.69-.98,6.11-2.97,10.2-18.27,5.86-23.49-1.35-1.62-4.62-1.88-7.08-2.19-.69-.09-2.33,1.87-2.36,2.92-.2,7.76-.11,15.52-.11,23.73Z"></path><path class="cls-1" d="m174.22,506.34c4.63,13.56,9.09,26.59,13.53,39.62,2.55,7.47,1.21,9.55-6.65,10.36-10.4,1.07-10.57.97-14.59-9.01-2.25-5.58-4.49-11.16-7.89-16.45,0,6.73-.02,13.47,0,20.2.02,6.27-.17,6.37-6.18,6.56-13.91.43-12.98-.59-12.7-12.73.69-30.26,1.16-60.53,1.73-90.8.15-7.91,1.93-9.91,9.67-9.94,9.47-.03,18.94.16,28.41.49,6.19.22,11.16,4.14,11.56,10.38.81,12.76,1.23,25.59.84,38.36-.17,5.43-4.82,8.87-10,10.7-2.33.82-4.75,1.4-7.74,2.26Zm-15.7-16.47c5.21-.45,9.4-1.99,10.2-6.59,1-5.77.93-11.77.87-17.66-.04-3.22-2.92-4.24-5.42-3.41-2.12.7-5.27,2.66-5.39,4.25-.57,7.57-.25,15.2-.25,23.41Z"></path><path class="cls-1" d="m258.03,497.69c0-13.95.34-22.41.67-36.35.24-9.77,2.89-12.19,12.54-12.6,8.44-.36,16.91-.76,25.35-.47,7.32.25,10.62,4.21,10.61,11.59-.01,14.46,0,28.92-.25,43.38-.22,13.28-.56,26.56-1.19,39.83-.46,9.52-3.87,12.76-13.38,12.94-8.95.17-17.92,0-26.87-.28-4.69-.14-7.51-4.55-7.47-10.65.09-13.29.1-26.59.14-39.88,0-.66-.29-7.5-.14-7.5Zm19.94,7.03c0,7.8-.19,15.61.17,23.39.07,1.43,2.22,3.73,3.67,3.96,4.83.74,4.61-3.3,4.69-6.32.38-14.59.58-29.19.86-43.79.07-3.5-.16-7.5-4.48-7.49-4.16.01-3.69,4.42-4.19,7.35-.39,2.27-.76,6.92-.77,9.24-.03,5.31.2,13.66.05,13.66Z"></path><path class="cls-1" d="m324.54,465.4c-3.53-.28-6.5-.46-9.45-.77-1.13-.12-3.14-.43-3.19-.84-.58-4.61-1.31-9.29-.95-13.87.13-1.61,3.04-4.06,4.9-4.28,5.74-.66,11.59-.6,17.39-.51,6.98.11,13.95.63,20.93.77,3.99.08,5.74,1.97,5.84,5.81.08,2.99.14,5.99.43,8.97.59,6.11-1.53,8.15-7.78,7.29-6.65-.91-6.94-.83-7.05,5.93-.36,22.29-.57,44.57-.83,66.86,0,.17.01.33.02.5.29,14.26-3.22,17.29-17.12,14.25-1.17-.26-2.58-2.8-2.63-4.31-.23-8.48-.05-16.97-.07-25.45-.03-18.47-.09-36.94-.16-55.41,0-1.47-.16-2.94-.28-4.93Z"></path><path class="cls-1" d="m180.11,610.87c-1.09-7-2.1-13.47-3.11-19.95-.34-.1-.68-.2-1.02-.3-1.6,4.22-3.05,8.5-4.87,12.62-1.04,2.37-2.68,4.48-4.05,6.71-1.53-2.31-3.48-4.45-4.5-6.96-1.72-4.24-2.86-8.72-5.37-13-.75,6.82-1.51,13.63-2.27,20.56-.96.08-1.61.26-2.22.18-8.49-1.21-8.45-1.22-7.28-9.61,1.09-7.73,2.23-15.46,3.08-23.21.36-3.34,1.59-4.51,5.05-4.34,9.16.45,9.16.3,11.68,9.23.52,1.84,1.07,3.67,2.01,6.9,1.72-4.98,3.19-8.6,4.22-12.34,1.6-5.82,6.15-3.56,9.79-3.87,3.7-.32,3.71,2.55,4.14,4.94,1.44,8.01,2.37,16.16,4.39,24.02,1.24,4.83-.48,6.35-4.55,7.13-1.46.28-2.88.74-5.11,1.32Z"></path><path class="cls-1" d="m227.37,594.97c0,4.76,0,9.53,0,14.29-.25.21-.48.59-.74.61-10.06.88-9.97.87-10.22-9.35-.17-6.97-.41-13.96-1.02-20.9-.5-5.64,4.09-4.26,6.76-5.05,1.05-.31,3.31,1.29,4.07,2.58,2.76,4.67,5.11,9.57,7.61,14.38.56-.1,1.11-.2,1.67-.29,0-4.11-.15-8.22.07-12.32.09-1.62.85-4.47,1.59-4.57,2.87-.37,5.91-.09,8.76.53.55.12.73,2.85.75,4.37.09,8.29-.22,16.61.24,24.88.19,3.45-1.47,4.52-3.93,5.25-2.74.81-5.76,2.5-7.76-1.47-2.23-4.43-4.64-8.78-6.97-13.16-.3.07-.59.14-.89.21Z"></path><path class="cls-1" d="m104.94,609.21c2.46-7.36,4.8-14.36,7.16-21.37.37-1.1.82-2.17,1.21-3.27,3.93-11.18,3.94-11.28,15.21-9.78,1.24.17,2.8,2.11,3.23,3.53,3.04,9.96,5.83,20,8.72,30.12-5.68,3.06-11.22,1.95-12.67-3.51-.59.64-1.15,1.24-1.7,1.83-1.64,1.76-4.43,1.77-6.07,0l-1.58-1.69c-2.89,5.21-3.86,5.52-13.51,4.13Zm18.65-21.16c-.38.04-.75.08-1.13.12-.72,2.72-1.45,5.43-2.28,8.56,2.44-.16,4.03-.27,6.07-.4-.98-3.04-1.82-5.66-2.66-8.27Z"></path><path class="cls-1" d="m99.27,584.42c-3.74.38-7.2.54-10.58,1.14-4.44.79-7.17,4.65-6.78,9.05.39,4.39,3.81,7.52,9.08,7.83-.23-3.43-.45-6.82-.69-10.55h9.89v17.1c-9.27,3.52-19.01,2.08-23.7-3.57-4.55-5.49-5.3-15.48-1.66-22.12,3.51-6.41,11.7-10.68,18.86-9.56,1.16.18,2.63,1.35,3.09,2.43,1.09,2.56,1.66,5.34,2.5,8.25Z"></path><path class="cls-1" d="m279.88,584.46c-3.72.36-6.86.5-9.94,1-4.87.79-7.74,4.41-7.42,9.02.3,4.31,3.66,7.51,9.11,8.05-.23-3.45-.46-6.81-.71-10.59h10.39c-.21,3.1-.49,6.02-.6,8.94-.1,2.77-.02,5.54-.02,8.86-4.97.22-10.12,1.16-15.08.53-10.91-1.38-16.32-16.54-9.92-27.28,4.14-6.94,10.6-9.82,18.51-9.24,1.21.09,2.79,1.54,3.34,2.75,1.07,2.38,1.54,5.03,2.36,7.94Z"></path><path class="cls-1" d="m197.53,593.61c-.34-5.12-.58-10.25-1.07-15.36-.26-2.68.36-4.18,3.35-4.07,1.48.05,2.97-.16,4.45-.3,2.72-.25,3.89.88,3.89,3.71-.02,9.59.14,19.18.18,28.77.02,5.84-4.76,3.19-7.41,3.86-3.05.78-3.86-1.34-3.73-4.19.19-4.13.05-8.28.05-12.42.1,0,.2,0,.3,0Z"></path></g></g></g></svg>