<?xml version="1.0" encoding="UTF-8"?>
<svg id="Layer_1" xmlns="http://www.w3.org/2000/svg" version="1.1" viewBox="0 0 1001 522">
  <path d="M197,0c.4,1.64,2.34.77,4.01.84,50.67,2.31,111.05,27.94,110.06,87.14-.21,12.41-1.8,24.08-6.56,35.42-6.96,16.56-20.24,28.79-37.72,33.36-14.76,3.86-45.26,4.76-50.83-13.6,14.18-11.28,36.58-33.63,36.39-52.41-.2-19.77-12.79-36.5-30.76-44.3-12.05-5.23-24.42-6.68-37.62-6.51-22.22.28-43.7,3.32-63.93,12.1-24.58,10.67-42.69,30.11-50.13,55.84-3.78,13.09-5.66,26.33-4.59,40.04,2.6,33.33,57.4,59.89,84.14,73.47l63.11,32.05c16.4,8.33,31.25,17.95,45.51,29.49,21.41,17.32,36.61,37.42,36.25,66.08-.81,64.62-44.7,108.89-102.03,131.52-36.68,14.48-75.71,20.83-115.22,19.45-11.64-.41-22.08-3.25-32.38-7.57-24.91-10.45-40.67-33.02-43.3-59.92-.76-7.78-.58-15.41-.05-23.27,3.66-54.23,33.48-101.1,92.72-101.52,16.67-.12,30.25,10.45,30.64,27.92-39.03,12.38-70.84,47.97-66.27,90.11,1.18,10.9,9.77,19.84,18.72,24.95,8.18,4.67,17.28,6.71,26.98,6.12,30.79-1.89,60.67-11.98,85.26-30.3,25.9-19.3,40.49-49.23,37.26-81.47-1.04-10.36-7.54-18.97-14.59-26.12C164.21,270.42,15.45,247.01.98,157.01c-.31-1.91.81-4.32-.98-5.01v-24c0-24.26,9.03-47.69,24.1-67.82C55.07,18.81,107.42,5.56,156.35,1.31c6.57-.57,12.88.64,18.65-1.31h22Z"/>
  <path d="M333.85,374.93c-2.4-27.57,15.56-97.34,22-127-17.79,6.73-33.69,12.87-50.98,16.91-9.5,2.22-18.12.29-24.31-7.57-7.42-8.43-11.67-18.99-15.06-29.86-.52-1.65-.11-3.61,1.86-4.3l101.58-35.51,19.64-75.17c3.44-13.17,13.74-22.84,24.68-30.28,11.96-4.76,25-8.8,37.47-9.97,2.02-.19,7.69.43,7.15,2.85l-22.26,99.13c19.22-4.12,37.34-8.27,56.3-10.42,6.01-.68,11.69-1.06,17.13,1.16,6.12,2.21,8.9,8.99,5.38,14.77-6.58,10.8-14.41,20.47-22.12,30.59-2.87,3.19-6.17,5.81-10.59,6.74-20.36,4.25-40.12,8.82-60.32,14.21l-19.06,74.17c-3.35,13.03-6.01,25.42-8.2,38.65-1.1,6.63-.96,13.13,1.47,19.3,5.06,12.82,18.73,9,28.44,4.6,12.72-5.76,24.41-12.68,35.72-20.57,1.29-34.27,13.16-65.97,34.96-91.58,19.36-22.75,47.62-41.08,78.26-41.87,5.68-.15,10.28,2.25,13.18,6.98,6.7,10.92,16.18,7.61,28.88,7.92,17.07.42,12.27,28.84,10.01,40.22l-9.6,48.38c-2.3,11.57-4.88,46.01,4.21,52.76,10.27,7.63,34.01-22.2,37.53-31.6l23.41-103.82,29.14-118.84c3.45-14.08,6.31-27.16,8.58-41.19,12.28-3.68,24.6-4.83,36.63-1.79,11.95,3.02,19.52,12.69,19.46,25.2-.07,14.76-2.82,28.92-7.16,43.11l-18.72,61.16c-3.98,13-8.25,25.09-10.4,39.2,13.97-7.31,25.36-16.53,36.96-26.76,22.24-19.62,41.78-41,61.22-63.75,8.21.87,15.84,3.53,22.69,7.75,8.61,5.3,10.61,14.99,5.27,23.68-6.21,9.79-14.24,17.76-22.92,25.95-22.8,21.53-47.08,40.51-72.07,59.74,6.05,44.19,19.29,92.23,44.26,129.39,18.69,27.34,45.05,47.67,79.43,48.42,37.55.83,70.88-9.03,98.33-34.67,1.24-1.16,5.15-3.65,6.54-2.19,6.36,17.16-.61,35.68-15.27,46.51-28.15,20.82-73.66,24.82-107.52,21.44-37.38-3.73-70.01-21.72-93.91-50.33-33.04-39.54-47.3-91.97-54.38-143.27-5.89,19.47-7.92,39.16-8.82,59.51l-2.54,57.14c-14.3,9.43-47,17.8-58.88,1.46-4.43-6.09-4.6-13.12-4.62-20.89-7.16,10.13-20.18,25.76-32.51,28.53-20.4,4.59-36.71-11.47-44.03-29.39-11.93,11.72-24.9,20.81-40.18,26.28-27.16,9.79-58.81,3.12-70.95-25.97-28.12,20.52-66.37,36.05-100.18,28.98-17.27-3.61-28.66-16.69-30.19-34.24ZM525.53,371.13c48.89-.4,54.91-87.56,54.71-122.49-10.79,1.24-19.13,6.83-26.66,14.17-19.99,19.51-34.28,44.36-42.28,71.22-2.37,7.97-3.18,15.9-1.98,23.69,1.27,8.28,7.36,13.49,16.21,13.41Z"/>
  <path d="M966.17,351.71l11.08-10.21c8.03,3.47,13.69,11.05,15.85,19.51,1.43,5.57-.91,10.5-4.81,14.41-26.2,26.23-66.42,39.78-103.3,30.67-50.84-12.56-64.26-71.53-44.55-115.86,13.71-30.83,38.46-55.56,69.08-69.73,26.07-12.06,59.83-11.19,80.34,9.59,3.65,3.7,6.16,8.09,6.86,13.32,1.98,14.81.2,29.89-6.88,43.25-19.05,35.97-62.59,46.3-100.8,43.31-3.2,15.91,1.69,36.3,19.58,39.38,20.97,3.61,41.75-3.04,57.56-17.63ZM957.7,264.92c1.94-5.68,5.05-23.97-.04-27.1-6.11-3.76-20.82,5.55-26.69,11.18-17.81,17.12-30.75,39.04-36.89,63.69,29.18,2.71,54.63-21.43,63.62-47.77Z"/>
  <path d="M531.15,514.12c-10.58,9.59-34.48,9.64-45.36-.56,2.02-4.16,4.41-7.75,7.1-11.85,5.82,5.14,12.9,6.84,20.15,5.27,6.45-1.4,9.82-7.64,8-13.73-6.46,6.07-13.89,7.71-22.47,5-14.25-4.5-17.09-22.51-13.56-35.1,2.11-7.5,7.76-12.97,14.17-14.83,8.1-2.35,15.71-.85,21.8,5.01.57-1.4.5-2.26.62-2.97.59-3.29,11.85-1.63,16.64-1.48l-.16,49.12c-.02,6.18-2.55,12.14-6.93,16.12ZM521.49,480.32l-.08-13.89c-4.21-4.69-11.74-6.17-16.94-1.79-4.93,4.15-5.06,12.76-.35,17.17,5.06,4.74,12.85,3.4,17.37-1.48Z"/>
  <path d="M605.67,462.38c-3.44-.96-11.33.5-12.05,4.89-1.78,10.83.19,21.62-.8,32.81l-16.4.12-.2-51.34c5.4-.48,10.4-.68,15.92-.04,1.48.17.59,3.63,1.37,5.05,7.25-6.5,17.86-8.78,27.04-4.36,4.58,2.2,7.27,7.41,7.3,12.49l.18,38.12c-5.93.26-11.04.32-16.68-.06l-.25-31.06c-.02-3.05-1.58-5.53-5.42-6.61Z"/>
  <path d="M388.96,488.34c6.05,1.17,11.17-.86,15.81-3.91,2.61,3.15,4.7,6.41,7.01,10.21-6.21,5.77-15.11,7.1-23.71,6.84-15.03-.45-26.02-11.57-26.19-26.47s10.6-26.75,25.57-27.71c11.84-.76,22.54,5.4,26.5,16.79,1.75,5.02,2.48,10.22,1.8,15.58l-36.2.21c.8,4.34,4.55,7.51,9.42,8.45ZM399.86,468.31c-1.61-6.5-6.44-8.5-11.94-7.93-3.82.39-8.32,3.4-8.33,8.29,7.29-.05,13.74.61,20.27-.36Z"/>
  <path d="M665,488.47c5.66.89,10.28-1.14,15.11-3.9,2.82,3.24,4.89,6.71,7.05,10.28-7.03,5.65-15.52,6.98-24.11,6.62-14.96-.63-25.74-11.71-25.89-26.5-.16-15.55,11.39-27.44,26.99-27.72,11.84-.21,22.07,6.62,25.5,18.15,1.38,4.64,2.01,9.36,1.31,14.25l-36.22.28c1.27,5.09,5.3,7.75,10.26,8.54ZM675.17,468.27c-1.75-6.82-6.82-8.28-11.57-7.93-4.39.32-8.58,3.3-8.75,8.3,7.03-.05,13.72.68,20.32-.37Z"/>
  <path d="M455.04,463.09c-3.33-2.01-12.61-1.11-13.75,3.9-2.41,10.59.45,21.81-1.17,33.03-5.37.39-10.68.4-16.31,0l-.02-51.22c5.38-.38,10.18-.67,15.44,0,1.88.24,1.07,3.8,1.62,5.03,7.43-6.31,16.72-8.3,25.51-5.12,5.49,1.98,8.82,7.32,8.82,13.25v38.04c-5.77.41-10.64.39-16.31.03l-.21-29.99c-.02-2.64-.49-5.07-3.63-6.96Z"/>
  <path d="M565.77,499.87c-5.7.79-10.91.38-16.77.24v-51.33c5.81-.41,11.08-.51,16.74.09l.03,51.01Z"/>
  <path d="M555.97,423.41c5.78-.88,9.97,3.31,10.68,7.46,1.01,5.85-2.8,10.38-7.37,11.21-5.62,1.02-10.05-2.28-11.15-6.88-1.3-5.43,1.72-10.86,7.83-11.79Z"/>
</svg>